<svg xmlns="http://www.w3.org/2000/svg" enable-background="new 0 0 24 24" viewBox="0 0 24 24" id="angular"><path fill="#F44336" d="M21.317,18.755L23,3.986L12,0L1,3.986l1.684,14.769L12,24L21.317,18.755L21.317,18.755z M7.692,18.311H5.114L12,2.651l6.892,15.66h-2.573l-1.387-3.504H9.079L7.692,18.311L7.692,18.311z"></path><polygon fill="#F44336" points="9.983 12.648 14.017 12.648 12 7.741 9.983 12.648"></polygon><polygon fill="#DEDEDE" points="12 2.651 5.114 18.311 7.692 18.311 9.079 14.807 12 14.807 12 12.648 9.983 12.648 12 7.741 12 2.651"></polygon><polygon fill="#D43A2F" points="12 0 1 3.986 2.684 18.755 12 24 12 14.807 9.079 14.807 7.692 18.311 5.114 18.311 12 2.651 12 0"></polygon><polygon fill="#D43A2F" points="12 7.741 9.983 12.648 12 12.648 12 7.741"></polygon></svg>